<?xml version="1.0" standalone="no"?>
<!DOCTYPE svg PUBLIC "-//W3C//DTD SVG 20010904//EN"
 "http://www.w3.org/TR/2001/REC-SVG-20010904/DTD/svg10.dtd">
<svg version="1.0" xmlns="http://www.w3.org/2000/svg"
 width="200.000000pt" height="200.000000pt" viewBox="0 0 200.000000 200.000000"
 preserveAspectRatio="xMidYMid meet">
<metadata>
Created by potrace 1.11, written by Peter Selinger 2001-2013
</metadata>
<g transform="translate(0.000000,200.000000) scale(0.100000,-0.100000)"
fill="#000000" stroke="none">
<path d="M375 1822 c-2 -2 5 -18 15 -35 65 -113 82 -289 41 -420 -11 -38 -22
-102 -23 -143 -2 -41 -5 -74 -8 -74 -6 0 -3 -772 3 -855 4 -59 -5 -100 -33
-137 l-21 -28 636 0 c417 0 635 3 635 10 0 6 -4 10 -10 10 -5 0 -7 7 -4 15 4
8 2 15 -3 15 -10 0 -15 48 -14 123 0 26 -3 37 -12 34 -8 -3 -11 -23 -9 -64 2
-59 1 -61 -25 -68 -31 -8 -117 -23 -178 -31 -22 -3 -65 -9 -95 -14 -52 -8
-512 -5 -575 4 -62 9 -101 15 -126 20 -14 3 -42 7 -62 8 -20 2 -37 6 -37 11 0
4 -3 6 -7 6 -33 -5 -38 2 -37 58 1 32 -2 63 -6 68 -8 13 -5 771 5 885 4 46 13
103 21 125 28 76 36 180 20 280 -4 28 -8 58 -9 68 -1 9 -5 17 -9 17 -4 0 -8 6
-8 13 0 6 -7 25 -15 41 -9 17 -12 32 -6 35 13 8 1180 5 1188 -3 3 -3 3 -9 -1
-13 -4 -4 -251 -8 -549 -9 -298 -1 -544 -2 -547 -3 -3 -1 0 -5 7 -9 6 -4 250
-7 542 -6 l530 0 -5 -23 c-4 -12 -7 -34 -8 -48 0 -14 -4 -25 -7 -25 -3 0 -5
-15 -4 -32 0 -18 -2 -45 -6 -60 -6 -21 -4 -28 7 -28 9 0 14 11 14 35 0 19 0
36 1 38 0 1 5 22 10 47 6 25 13 56 15 70 3 14 14 37 24 52 25 34 25 43 0 45
-11 1 -19 -1 -16 -5 2 -4 -6 -7 -19 -7 -13 0 -22 2 -20 6 2 3 -12 6 -31 6 -23
1 -32 -3 -27 -10 4 -7 0 -6 -9 1 -13 11 -21 11 -39 2 -14 -8 -19 -8 -15 -1 4
6 0 11 -8 11 -9 0 -16 -5 -16 -11 0 -8 -4 -8 -12 -2 -16 13 -48 13 -48 1 0 -5
-6 -6 -12 -1 -18 11 -108 11 -108 0 0 -6 -5 -5 -12 0 -16 13 -48 13 -48 1 0
-5 -6 -6 -12 -1 -19 11 -112 10 -120 -2 -5 -6 -8 -5 -8 3 0 6 -5 12 -11 12 -5
0 -7 -6 -3 -12 6 -10 3 -9 -8 0 -13 11 -21 11 -39 2 -12 -7 -19 -8 -16 -3 4 6
-21 9 -58 9 -36 0 -65 -4 -65 -9 0 -4 -6 -5 -12 0 -17 11 -148 11 -148 0 0 -4
-6 -5 -12 0 -18 11 -92 10 -100 -2 -5 -6 -8 -5 -8 3 0 6 -5 12 -11 12 -5 0 -8
-4 -5 -8 3 -5 -1 -9 -9 -9 -8 0 -12 3 -10 7 4 6 -154 8 -160 2z m1205 -1655
c0 -21 -3 -22 -96 -20 -53 1 -98 4 -101 7 -3 3 3 5 13 5 29 0 78 9 105 19 13
5 29 7 36 5 6 -2 14 1 18 7 10 16 25 2 25 -23z m-1110 14 c19 -5 53 -12 75
-15 22 -3 41 -5 43 -6 1 0 2 -3 2 -7 0 -5 -43 -7 -95 -5 -52 2 -95 5 -95 7 0
2 3 10 6 19 7 18 16 19 64 7z"/>
<path d="M803 1538 c-2 -5 -14 -8 -27 -8 -12 0 -27 -5 -34 -12 -8 -8 -15 -8
-26 2 -13 10 -21 7 -51 -23 -19 -19 -35 -42 -35 -50 0 -9 -11 -25 -25 -36 -49
-38 -75 -87 -74 -139 1 -27 -4 -59 -10 -71 -11 -20 -8 -29 26 -78 21 -30 50
-64 66 -75 33 -24 58 -24 170 -3 31 6 40 4 52 -11 8 -11 15 -15 15 -11 0 4 9
3 21 -3 17 -9 20 -18 15 -48 -4 -29 2 -47 26 -85 17 -26 28 -50 25 -53 -3 -4
-1 -17 4 -31 6 -17 5 -34 -5 -56 -23 -51 -24 -60 -8 -96 7 -19 15 -42 17 -52
2 -9 15 -46 29 -81 14 -36 26 -72 26 -81 0 -20 36 -41 52 -31 7 4 23 9 36 10
24 3 94 45 87 52 -2 2 5 13 16 25 10 11 19 29 19 39 0 9 9 22 21 29 17 8 20
18 17 46 -4 31 0 39 33 65 46 37 50 52 34 130 -15 73 -10 89 52 154 59 64 72
82 79 109 3 14 10 28 15 31 5 3 9 17 9 31 0 19 -4 24 -17 19 -9 -4 -31 -9 -48
-12 -29 -4 -35 0 -73 51 -23 31 -42 60 -42 65 0 6 -5 10 -11 10 -5 0 -8 3 -5
8 2 4 -15 48 -39 97 -42 85 -46 90 -77 91 -60 2 -66 4 -82 19 -14 14 -17 14
-36 -5 -25 -25 -37 -25 -74 -1 -17 11 -33 18 -37 15 -10 -6 -22 33 -14 46 7
11 0 13 -63 14 -24 1 -46 -2 -49 -6z"/>
<path d="M1550 1443 c-1 -49 -2 -92 -2 -98 0 -11 8 -89 17 -170 3 -27 7 -70 9
-95 3 -25 8 -72 12 -104 4 -33 7 -84 8 -113 0 -29 5 -53 10 -53 5 0 3 -6 -3
-13 -6 -8 -8 -17 -4 -21 6 -6 6 -53 -1 -118 -2 -16 1 -28 6 -28 5 0 6 -6 1
-12 -13 -22 -14 -50 -1 -46 10 4 13 39 13 134 0 74 4 132 10 136 6 5 6 8 -1 8
-8 0 -13 25 -14 68 -3 105 -4 112 -9 112 -4 0 -7 19 -7 43 -2 35 -12 145 -18
182 0 6 -5 13 -11 17 -6 5 -5 8 3 8 7 0 10 5 6 12 -8 13 -7 175 1 188 3 5 -1
11 -7 13 -10 4 -10 6 0 6 17 1 15 31 -2 31 -11 0 -14 -20 -16 -87z"/>
<path d="M1604 562 c-7 -4 -14 -36 -18 -72 -7 -74 -15 -120 -23 -133 -3 -5 3
-7 13 -5 13 2 19 13 20 38 2 39 12 123 20 158 5 24 4 25 -12 14z"/>
</g>
</svg>
